<svg aria-hidden="true" style="position: absolute; width: 0; height: 0; overflow: hidden;" version="1.1" xmlns="http://www.w3.org/2000/svg" xmlns:xlink="http://www.w3.org/1999/xlink">
<defs>
<symbol id="icon-bed" viewBox="0 0 32 28">
<title>bed</title>
<path d="M4 16h27c0.547 0 1 0.453 1 1v7h-4v-4h-24v4h-4v-19c0-0.547 0.453-1 1-1h2c0.547 0 1 0.453 1 1v11zM13 11c0-2.203-1.797-4-4-4s-4 1.797-4 4 1.797 4 4 4 4-1.797 4-4zM32 15v-1c0-3.313-2.688-6-6-6h-11c-0.547 0-1 0.453-1 1v6h18z"></path>
</symbol>
<symbol id="icon-sort" viewBox="0 0 24 24">
<title>sort</title>
<path d="M6.984 9.984h10.031l-5.016 5.016z"></path>
</symbol>
<symbol id="icon-person" viewBox="0 0 24 24">
<title>person</title>
<path d="M15 14.016c2.672 0 8.016 1.313 8.016 3.984v2.016h-16.031v-2.016c0-2.672 5.344-3.984 8.016-3.984zM6 9.984h3v2.016h-3v3h-2.016v-3h-3v-2.016h3v-3h2.016v3zM15 12c-2.203 0-3.984-1.781-3.984-3.984s1.781-4.031 3.984-4.031 3.984 1.828 3.984 4.031-1.781 3.984-3.984 3.984z"></path>
</symbol>
<symbol id="icon-phone" viewBox="0 0 32 32">
<title>phone</title>
<path d="M21.999 4h-12c-1.104 0-1.999 0.896-1.999 2v20c0 1.104 0.895 2 1.999 2h12c1.105 0 2.001-0.896 2.001-2v-20c0-1.104-0.896-2-2.001-2zM13 5h5l0.062 1h-5.062v-1zM15.979 26.5c-0.552 0-1-0.447-1-1s0.448-1 1-1c0.553 0 1 0.447 1 1s-0.448 1-1 1zM21.999 23h-12l0.021-16h11.979v16z"></path>
</symbol>
<symbol id="icon-time" viewBox="0 0 32 32">
<title>time</title>
<path d="M16 3.5c-7.181 0-13 5.82-13 13s5.819 13 13 13c7.179 0 13-5.82 13-13s-5.82-13-13-13zM15.895 27.027c-5.799 0-10.5-4.701-10.5-10.5s4.701-10.5 10.5-10.5c5.798 0 10.5 4.701 10.5 10.5s-4.702 10.5-10.5 10.5zM18.93 17.131h-2.98v-5.032c0-0.546-0.443-0.99-0.989-0.99s-0.99 0.443-0.99 0.99v6.021c0 0.547 0.443 0.989 0.99 0.989h3.969c0.547 0 0.99-0.442 0.99-0.989 0-0.546-0.443-0.989-0.99-0.989z"></path>
</symbol>
<symbol id="icon-chat" viewBox="0 0 32 32">
<title>chat</title>
<path d="M25.042 18.672v-12.487c0-1.234-1-2.236-2.236-2.236h-19.571c-1.235-0.001-2.236 1.001-2.236 2.236v12.487c0 1.235 1.001 2.236 2.236 2.236h3.729v5.137l5.704-5.137h10.137c1.237 0 2.237-1.001 2.237-2.236zM28.765 8.858h-2.798c0 0 0 9.972 0 10.909s-1.216 2.142-2.153 2.142-10.945 0.055-10.945 0.055c0 1.235 1.001 1.986 2.236 1.986h4.309l5.622 5.102-0.007-5.102h3.736c1.236 0 2.236-0.751 2.236-1.986v-10.932c0-1.234-1-2.174-2.236-2.174z"></path>
</symbol>
<symbol id="icon-envelope" viewBox="0 0 32 32">
<title>envelope</title>
<path d="M16.015 18.861l-4.072-3.343-8.862 10.463h25.876l-8.863-10.567-4.079 3.447zM29.926 6.019h-27.815l13.908 11.698 13.907-11.698zM20.705 14.887l9.291 11.084v-18.952l-9.291 7.868zM2.004 7.019v18.952l9.291-11.084-9.291-7.868z"></path>
</symbol>
<symbol id="icon-car" viewBox="0 0 32 32">
<title>car</title>
<path d="M27 22h-23c-1.104 0-2-0.896-2-2v-5c0-1.104 0.896-2 2-2h1c0 0 1.479-4.5 1.916-6s0.896-2 2.001-2h13.166c1.104 0 1.438 0.312 2 2s1.917 6 1.917 6h1c1.104 0 2 0.896 2 2v5c0 1.104-0.896 2-2 2zM9 20h13v-1h-13v1zM22 13c0-1.104-0.896-2.125-2-2.125s-2 1.021-2 2.125c0 0.026 4 0.026 4 0zM9 18h13v-1h-13v1zM9 16h13v-1h-13v1zM4.062 17c0 1.104 0.896 2 2 2s2-0.896 2-2-0.896-2-2-2-2 0.896-2 2zM23.083 7c-0.25-0.688-0.447-1-1-1h-6.083v1h0.5c0.276 0 0.5 0.224 0.5 0.5s-0.224 0.5-0.5 0.5h-2c-0.276 0-0.5-0.224-0.5-0.5s0.224-0.5 0.5-0.5h0.5v-1h-6.083c-0.553 0-0.751 0.125-1 1-0.251 0.875-1.917 6-1.917 6h11.46c0.023-1.364 1.13-2.643 2.495-2.643s2.472 1.278 2.496 2.643h2.549c0 0-1.667-5.312-1.917-6zM24.938 15.062c-1.104 0-2 0.896-2 2s0.896 2 2 2 2-0.896 2-2-0.896-2-2-2zM7 25.5c0 0.828-0.672 1.5-1.5 1.5s-1.5-0.672-1.5-1.5v-2.5h3v2.5zM27 25.5c0 0.828-0.672 1.5-1.5 1.5s-1.5-0.672-1.5-1.5v-2.5h3v2.5z"></path>
</symbol>
<symbol id="icon-bus" viewBox="0 0 33 32">
<title>bus</title>
<path d="M22 29.012c0 0.553 0.447 1 1 1h1c0.552 0 1-0.447 1-1v-2.062h-3v2.062zM8 29.012c0 0.553 0.447 1 1 1h1c0.553 0 1-0.447 1-1v-2.062h-3v2.062zM4.985 25.729c0 0.67 0.544 1.215 1.215 1.215h20.596c0.671 0 1.215-0.545 1.215-1.215 0-0.672 0-0.715 0-0.715h-23.026c0 0 0 0.043 0 0.715zM32 10.012v-2h-3.99l0.001-1.088c0-2.431-2.489-4.937-11.974-4.937-8.338 0-11.052 2.506-11.052 4.937v1.088h-3.985v2h-1v4h1v2h3.985v7.974h23l0.022-14.974h2.993v1h-1v4h1v1h-3v1h4v-2h1v-4h-1zM4.985 15.012h-2.985v-1h1v-4h-1v-1h2.985v6zM12.5 4.95h8c0.276 0 0.5 0.224 0.5 0.5s-0.224 0.5-0.5 0.5h-8c-0.276 0-0.5-0.224-0.5-0.5s0.224-0.5 0.5-0.5zM7.041 9.229c0-0.671 0.544-1.215 1.215-1.215h6.514c0.671 0 1.215 0.544 1.215 1.215v3.583c0 0.672-0.544 1.216-1.215 1.216h-6.514c-0.671 0-1.215-0.544-1.215-1.216v-3.583zM8.988 21.738c-1.007 0-1.822-0.816-1.822-1.822 0-1.008 0.815-1.822 1.822-1.822s1.823 0.814 1.823 1.822c0.001 1.006-0.816 1.822-1.823 1.822zM12 17.012h9v1h-9v-1zM21.032 21.943h-9.006v-0.965h9.006v0.965zM21.032 19.951h-9.006v-0.965h9.006v0.965zM24.008 21.801c-1.007 0-1.822-0.816-1.822-1.822s0.815-1.822 1.822-1.822 1.823 0.816 1.823 1.822-0.816 1.822-1.823 1.822zM26.005 12.812c0 0.672-0.544 1.216-1.216 1.216h-6.562c-0.672 0-1.216-0.544-1.216-1.216v-3.583c0-0.671 0.544-1.215 1.216-1.215h6.562c0.672 0 1.216 0.544 1.216 1.215v3.583z"></path>
</symbol>
<symbol id="icon-ticket" viewBox="0 0 39 32">
<title>ticket</title>
<path d="M39 19.438v5.562c0 1.104-0.896 2-2 2h-35c-1.104 0-2-0.896-2-2v-5.5c1.657 0 3-1.344 3-3 0-1.657-1.343-3-3-3v-5.5c0-1.104 0.896-2 2-2h35c1.104 0 2 0.896 2 2v5.438c-1.657 0-3 1.343-3 3 0 1.656 1.343 3 3 3zM34 11c0-1.104-0.896-2-2-2h-25c-1.104 0-2 0.896-2 2v11c0 1.104 0.896 2 2 2h25c1.104 0 2-0.896 2-2v-11zM32 23h-25c-0.553 0-1-0.448-1-1v-11c0-0.553 0.447-1 1-1h25c0.552 0 1 0.447 1 1v11c0 0.552-0.448 1-1 1zM12.47 15.538l-0.907-2.58-0.907 2.58-2.614 0.11 2.054 1.704-0.709 2.648 2.176-1.526 2.175 1.526-0.708-2.647 2.053-1.704-2.613-0.111zM20.47 15.538l-0.907-2.58-0.907 2.58-2.614 0.11 2.054 1.704-0.709 2.648 2.176-1.526 2.175 1.526-0.708-2.647 2.053-1.704-2.613-0.111zM28.47 15.538l-0.907-2.58-0.907 2.58-2.613 0.11 2.053 1.704-0.709 2.648 2.176-1.526 2.175 1.526-0.708-2.647 2.053-1.704-2.613-0.111z"></path>
</symbol>
<symbol id="icon-calendar" viewBox="0 0 20 20">
<title>calendar</title>
<path d="M1 4c0-1.1 0.9-2 2-2h14c1.105 0 2 0.895 2 2v0 14c0 1.105-0.895 2-2 2v0h-14c-1.105 0-2-0.895-2-2v0-14zM3 6v12h14v-12h-14zM5 0h2v2h-2v-2zM13 0h2v2h-2v-2zM5 9h2v2h-2v-2zM5 13h2v2h-2v-2zM9 9h2v2h-2v-2zM9 13h2v2h-2v-2zM13 9h2v2h-2v-2zM13 13h2v2h-2v-2z"></path>
</symbol>
<symbol id="icon-chevron-down" viewBox="0 0 20 20">
<title>chevron-down</title>
<path d="M9.293 12.95l0.707 0.707 5.657-5.657-1.414-1.414-4.243 4.242-4.243-4.242-1.414 1.414z"></path>
</symbol>
<symbol id="icon-lock" viewBox="0 0 20 20">
<title>lock</title>
<path d="M4 8v-2c0-3.314 2.686-6 6-6s6 2.686 6 6v0 2h1c1.105 0 2 0.895 2 2v0 8c0 1.105-0.895 2-2 2v0h-14c-1.105 0-2-0.895-2-2v0-8c0-1.1 0.9-2 2-2h1zM9 14.73v2.27h2v-2.27c0.602-0.352 1-0.996 1-1.732 0-1.105-0.895-2-2-2s-2 0.895-2 2c0 0.736 0.398 1.38 0.991 1.727l0.009 0.005zM7 6v2h6v-2c0-1.657-1.343-3-3-3s-3 1.343-3 3v0z"></path>
</symbol>
<symbol id="icon-network" viewBox="0 0 20 20">
<title>network</title>
<path d="M10 20c-5.523 0-10-4.477-10-10s4.477-10 10-10v0c5.523 0 10 4.477 10 10s-4.477 10-10 10v0zM17.75 12c0.161-0.6 0.254-1.289 0.254-2s-0.093-1.4-0.266-2.056l0.013 0.056h-3.82c0.044 0.598 0.070 1.296 0.070 2s-0.025 1.402-0.075 2.093l0.005-0.093h3.82zM16.93 14h-3.22c-0.186 1.31-0.518 2.493-0.985 3.605l0.035-0.095c1.782-0.67 3.226-1.9 4.15-3.472l0.020-0.038zM8.080 12h3.84c0.052-0.599 0.081-1.296 0.081-2s-0.030-1.401-0.088-2.090l0.006 0.090h-3.84c-0.052 0.599-0.081 1.296-0.081 2s0.030 1.401 0.088 2.090l-0.006-0.090zM8.33 14c0.41 2.4 1.13 4 1.67 4s1.26-1.6 1.67-4h-3.34zM2.25 12h3.82c-0.044-0.598-0.070-1.296-0.070-2s0.025-1.402 0.075-2.093l-0.005 0.093h-3.82c-0.161 0.6-0.254 1.289-0.254 2s0.093 1.4 0.266 2.056l-0.013-0.056zM3.070 14c0.944 1.61 2.388 2.84 4.115 3.492l0.055 0.018c-0.42-0.96-0.74-2.16-0.95-3.51h-3.22zM16.93 6c-0.944-1.61-2.388-2.84-4.115-3.492l-0.055-0.018c0.42 0.96 0.74 2.16 0.95 3.51h3.22zM8.33 6h3.34c-0.41-2.4-1.13-4-1.67-4s-1.26 1.6-1.67 4zM3.070 6h3.22c0.2-1.35 0.53-2.55 0.95-3.51-1.782 0.67-3.226 1.9-4.15 3.472l-0.020 0.038z"></path>
</symbol>
<symbol id="icon-dots" viewBox="0 0 20 20">
<title>dots</title>
<path d="M10.001 7.8c-1.215 0-2.201 0.985-2.201 2.2s0.986 2.2 2.201 2.2c1.215 0 2.199-0.985 2.199-2.2s-0.984-2.2-2.199-2.2zM10.001 5.2c1.215 0 2.199-0.986 2.199-2.2s-0.984-2.2-2.199-2.2c-1.215 0-2.201 0.985-2.201 2.2s0.986 2.2 2.201 2.2zM10.001 14.8c-1.215 0-2.201 0.985-2.201 2.2s0.986 2.2 2.201 2.2c1.215 0 2.199-0.985 2.199-2.2s-0.984-2.2-2.199-2.2z"></path>
</symbol>
<symbol id="icon-plane" viewBox="0 0 20 20">
<title>plane</title>
<path d="M19.87 6.453c0.119 0.257 0.127 1.29-4.884 3.642l-4.913 2.306c-1.71 0.803-4.191 1.859-5.285 2.151-0.766 0.204-1.497-0.316-1.497-0.316s-2.206-1.975-2.792-2.419c-0.585-0.444-0.535-0.67 0.215-0.91 0.467-0.149 3.13 0.493 4.265 0.78 1.339-0.8 2.562-1.486 3.141-1.798-1.396-1.033-4.008-2.962-4.841-3.55-0.799-0.565 0.010-0.768 0.010-0.768 0.368-0.099 1.162-0.228 1.562-0.144 2.721 0.569 7.263 2.071 7.611 2.186 0.832-0.436 2.128-1.092 2.922-1.465 2.075-0.974 4.327-0.037 4.486 0.305z"></path>
</symbol>
<symbol id="icon-attachment" viewBox="0 0 20 20">
<title>attachment</title>
<path d="M5.602 19.8c-1.293 0-2.504-0.555-3.378-1.44-1.695-1.716-2.167-4.711 0.209-7.116 1.391-1.408 6.966-7.053 9.748-9.87 0.988-1 2.245-1.387 3.448-1.060 1.183 0.32 2.151 1.301 2.468 2.498 0.322 1.22-0.059 2.493-1.046 3.493l-9.323 9.44c-0.532 0.539-1.134 0.858-1.738 0.922-0.599 0.064-1.17-0.13-1.57-0.535-0.724-0.736-0.828-2.117 0.378-3.337l6.548-6.63c0.269-0.272 0.705-0.272 0.974 0s0.269 0.714 0 0.986l-6.549 6.631c-0.566 0.572-0.618 1.119-0.377 1.364 0.106 0.106 0.266 0.155 0.451 0.134 0.283-0.029 0.606-0.216 0.909-0.521l9.323-9.439c0.64-0.648 0.885-1.41 0.69-2.145-0.192-0.725-0.778-1.318-1.493-1.513-0.726-0.197-1.48 0.052-2.12 0.7-2.782 2.818-8.356 8.462-9.748 9.87-1.816 1.839-1.381 3.956-0.209 5.143 1.173 1.187 3.262 1.629 5.079-0.212l9.748-9.87c0.269-0.272 0.705-0.272 0.974 0s0.269 0.714 0 0.987l-9.748 9.87c-1.149 1.162-2.436 1.65-3.648 1.65z"></path>
</symbol>
<symbol id="icon-card" viewBox="0 0 20 20">
<title>card</title>
<path d="M18 3h-16c-1.101 0-2 0.9-2 2v10c0 1.1 0.899 2 2 2h16c1.1 0 2-0.9 2-2v-10c0-1.1-0.9-2-2-2zM18 15h-16v-6h16v6zM18 6h-16v-1h16v1zM4 11.1v0.6h0.6v-0.6h-0.6zM7.6 12.299v0.601h1.2v-0.601h0.6v-0.6h0.6v-0.6h-1.2v0.6h-0.601v0.6h-0.599zM10 12.9v-0.601h-0.601v0.601h0.601zM7 12.9v-0.601h-1.2v0.601h1.2zM7.6 11.699h0.6v-0.6h-1.2v1.199h0.6v-0.599zM5.199 12.299h0.601v-0.6h0.6v-0.6h-1.2v0.6h-0.6v0.6h-0.6v0.601h1.199v-0.601z"></path>
</symbol>
<symbol id="icon-money" viewBox="0 0 20 20">
<title>money</title>
<path d="M11 16.755v2.245h-2v-2.143c-1.712-0.1-3.066-0.589-4.241-1.797l1.718-1.74c0.859 0.87 2.023 1.16 3.282 1.16 1.565 0 2.405-0.599 2.405-1.702 0-0.483-0.133-0.889-0.42-1.16-0.267-0.251-0.572-0.387-1.202-0.483l-1.642-0.232c-1.164-0.174-2.022-0.541-2.634-1.141-0.648-0.657-0.973-1.546-0.973-2.707 0-2.155 1.382-3.743 3.707-4.1v-1.955h2v1.932c1.382 0.145 2.465 0.62 3.415 1.551l-1.679 1.682c-0.859-0.832-1.889-0.947-2.787-0.947-1.412 0-2.099 0.792-2.099 1.74 0 0.348 0.115 0.716 0.401 0.986 0.267 0.252 0.706 0.464 1.26 0.541l1.602 0.232c1.241 0.174 2.023 0.522 2.596 1.063 0.726 0.696 1.050 1.702 1.050 2.92 0 2.25-1.567 3.662-3.759 4.055z"></path>
</symbol>
<symbol id="icon-plus" viewBox="0 0 20 20">
<title>plus</title>
<path d="M16 10c0 0.553-0.048 1-0.601 1h-4.399v4.399c0 0.552-0.447 0.601-1 0.601s-1-0.049-1-0.601v-4.399h-4.399c-0.552 0-0.601-0.447-0.601-1s0.049-1 0.601-1h4.399v-4.399c0-0.553 0.447-0.601 1-0.601s1 0.048 1 0.601v4.399h4.399c0.553 0 0.601 0.447 0.601 1z"></path>
</symbol>
<symbol id="icon-office" viewBox="0 0 32 32">
<title>office</title>
<path d="M0 32h16v-32h-16v32zM10 4h4v4h-4v-4zM10 12h4v4h-4v-4zM10 20h4v4h-4v-4zM2 4h4v4h-4v-4zM2 12h4v4h-4v-4zM2 20h4v4h-4v-4zM18 10h14v2h-14zM18 32h4v-8h6v8h4v-18h-14z"></path>
</symbol>
<symbol id="icon-phone1" viewBox="0 0 32 32">
<title>phone1</title>
<path d="M22 20c-2 2-2 4-4 4s-4-2-6-4-4-4-4-6 2-2 4-4-4-8-6-8-6 6-6 6c0 4 4.109 12.109 8 16s12 8 16 8c0 0 6-4 6-6s-6-8-8-6z"></path>
</symbol>
<symbol id="icon-location" viewBox="0 0 32 32">
<title>location</title>
<path d="M16 0c-5.523 0-10 4.477-10 10 0 10 10 22 10 22s10-12 10-22c0-5.523-4.477-10-10-10zM16 16c-3.314 0-6-2.686-6-6s2.686-6 6-6 6 2.686 6 6-2.686 6-6 6z"></path>
</symbol>
</defs>
</svg>
